<?xml version="1.0" encoding="UTF-8" standalone="no"?>
<svg width="147px" height="154px" viewBox="0 0 147 154" version="1.1" xmlns="http://www.w3.org/2000/svg" xmlns:xlink="http://www.w3.org/1999/xlink">
    <!-- Generator: Sketch 40.2 (33826) - http://www.bohemiancoding.com/sketch -->
    <title>Group 3</title>
    <desc>Created with Sketch.</desc>
    <defs></defs>
    <g id="Page-1" stroke="none" stroke-width="1" fill="none" fill-rule="evenodd">
        <g id="Group-3" fill="#FFFFFF">
            <path d="M0,154 L17,154 C40.1870144,154 60.9442231,143.62101 74.8827935,127.256467 C95.8780758,120.208502 111,100.370774 111,77 C111,53.6216063 95.8719555,33.7852155 74.8743489,26.7406629 C60.934319,10.3788849 40.1789354,0 17,0 L-2.66453526e-15,0 L0,24 L58.006773,24 C63.9038564,24 69.5759655,24.9630917 74.8743489,26.7406629 C86.1776617,40.0076571 93,57.2082978 93,75.9989875 L93,78.0010125 C93,96.7924859 86.1816762,113.991044 74.8827935,127.256467 C69.5822058,129.035836 63.9072567,130 58.006773,130 L2.66453526e-15,130 L0,154 Z" id="Combined-Shape"></path>
            <path d="M146.810192,99.6384684 C137.71606,123.247859 114.814366,140 88,140 C53.2060608,140 25,111.793939 25,77 C25,42.2060608 53.2060608,14 88,14 C114.814366,14 137.71606,30.7521406 146.810192,54.3615316 C137.852209,35.846153 118.245748,23 95.5,23 C64.2959116,23 39,47.1766235 39,77 C39,106.823376 64.2959116,131 95.5,131 C118.245748,131 137.852209,118.153847 146.810192,99.6384684 Z" id="Combined-Shape"></path>
        </g>
    </g>
</svg>